<svg width="21" height="20" fill="none" xmlns="http://www.w3.org/2000/svg"><path d="M10.736 0c2.648 0 2.978.01 4.017.06 1.038.05 1.745.217 2.367.465a4.741 4.741 0 0 1 1.727 1.153c.496.5.88 1.105 1.124 1.772.24.637.405 1.363.453 2.428.046 1.066.059 1.405.059 4.122 0 2.717-.01 3.056-.059 4.122-.048 1.065-.212 1.79-.453 2.428a4.897 4.897 0 0 1-1.124 1.772 4.78 4.78 0 0 1-1.727 1.153c-.62.247-1.329.415-2.367.465-1.039.047-1.37.06-4.017.06-2.649 0-2.98-.01-4.018-.06-1.038-.05-1.745-.218-2.367-.465a4.757 4.757 0 0 1-1.727-1.153A4.918 4.918 0 0 1 1.5 16.55c-.241-.637-.404-1.363-.453-2.428C1.001 13.056.989 12.717.989 10c0-2.717.01-3.056.058-4.122.049-1.066.212-1.79.453-2.428a4.894 4.894 0 0 1 1.124-1.772A4.763 4.763 0 0 1 4.351.525C4.973.277 5.68.11 6.718.06 7.757.013 8.088 0 10.736 0Zm0 5A4.812 4.812 0 0 0 7.29 6.464 5.067 5.067 0 0 0 5.862 10c0 1.326.514 2.598 1.428 3.536A4.812 4.812 0 0 0 10.736 15a4.812 4.812 0 0 0 3.446-1.464A5.066 5.066 0 0 0 15.609 10a5.066 5.066 0 0 0-1.427-3.536A4.812 4.812 0 0 0 10.736 5Zm6.335-.25c0-.332-.128-.65-.357-.884a1.203 1.203 0 0 0-.861-.366c-.323 0-.633.132-.862.366a1.267 1.267 0 0 0-.357.884c0 .332.129.65.357.884.229.234.539.366.862.366.323 0 .633-.132.861-.366.229-.235.357-.552.357-.884ZM10.736 7c.775 0 1.519.316 2.067.879A3.04 3.04 0 0 1 13.66 10a3.04 3.04 0 0 1-.857 2.121 2.887 2.887 0 0 1-2.067.879c-.776 0-1.52-.316-2.068-.879A3.04 3.04 0 0 1 7.812 10c0-.796.308-1.559.856-2.121A2.887 2.887 0 0 1 10.736 7Z" fill="#F9FBFD"/></svg>