<svg width="20" height="17" fill="none" xmlns="http://www.w3.org/2000/svg"><path d="M19.999 2.429a7.863 7.863 0 0 1-2.297.645 4.098 4.098 0 0 0 1.76-2.269 7.875 7.875 0 0 1-2.54.996 3.97 3.97 0 0 0-2.27-1.246 3.914 3.914 0 0 0-2.54.43 4.062 4.062 0 0 0-1.758 1.928 4.196 4.196 0 0 0-.247 2.627A11.137 11.137 0 0 1 5.54 4.297a11.414 11.414 0 0 1-3.677-3.042 4.166 4.166 0 0 0-.542 2.062c0 1.422.706 2.678 1.78 3.413a3.911 3.911 0 0 1-1.812-.512v.05c0 .947.32 1.865.905 2.598a3.987 3.987 0 0 0 2.304 1.424 3.93 3.93 0 0 1-1.808.07A4.102 4.102 0 0 0 4.113 12.4c.67.51 1.479.794 2.313.81a7.956 7.956 0 0 1-2.795 1.453 7.837 7.837 0 0 1-3.125.245 11.112 11.112 0 0 0 6.13 1.843c7.357 0 11.38-6.249 11.38-11.668 0-.176-.004-.355-.012-.53A8.242 8.242 0 0 0 20 2.43l-.001-.001Z" fill="#F9FBFD"/></svg>