<?xml version="1.0" standalone="no"?>
<!DOCTYPE svg PUBLIC "-//W3C//DTD SVG 20010904//EN"
 "http://www.w3.org/TR/2001/REC-SVG-20010904/DTD/svg10.dtd">
<svg version="1.0" xmlns="http://www.w3.org/2000/svg"
 width="1120.000000pt" height="1120.000000pt" viewBox="0 0 1120.000000 1120.000000"
 preserveAspectRatio="xMidYMid meet">
<metadata>
Created by potrace 1.14, written by Peter Selinger 2001-2017
</metadata>
<g transform="translate(0.000000,1120.000000) scale(0.100000,-0.100000)"
fill="#000000" stroke="none">
<path d="M4315 8527 c-37 -61 -82 -134 -100 -162 -31 -49 -210 -338 -230 -373
-45 -76 -71 -119 -78 -127 -4 -5 -53 -84 -109 -175 -103 -169 -192 -313 -209
-340 -5 -8 -76 -125 -159 -260 -82 -135 -157 -256 -167 -270 -10 -14 -29 -45
-42 -70 -13 -25 -27 -47 -30 -50 -4 -3 -26 -39 -51 -80 -24 -41 -47 -76 -52
-78 -4 -2 -8 -7 -8 -12 0 -5 -29 -56 -65 -114 l-66 -105 -35 20 c-20 11 -75
40 -122 66 -48 25 -91 49 -96 54 -6 5 -18 9 -28 9 -10 0 -18 4 -18 8 0 4 -15
15 -32 23 -51 23 -232 121 -242 130 -18 17 -33 9 -59 -28 -14 -21 -32 -47 -41
-58 -9 -11 -41 -54 -71 -95 -31 -41 -61 -82 -68 -90 -7 -8 -41 -55 -77 -105
-35 -49 -67 -92 -70 -95 -3 -3 -22 -27 -41 -55 -18 -27 -36 -52 -40 -55 -3 -3
-18 -23 -35 -45 -16 -22 -33 -44 -37 -50 -8 -11 -152 -206 -336 -455 -63 -85
-117 -157 -120 -160 -3 -3 -22 -27 -40 -55 -19 -27 -38 -52 -41 -55 -3 -3 -28
-36 -56 -75 -46 -66 -65 -91 -89 -119 -5 -6 -26 -34 -45 -61 -19 -28 -40 -56
-47 -63 -7 -7 -13 -17 -13 -21 0 -4 -8 -16 -18 -27 -9 -10 -49 -62 -87 -114
-38 -52 -73 -99 -78 -105 -4 -5 -21 -28 -37 -50 -16 -22 -36 -49 -45 -60 -8
-11 -72 -96 -141 -190 -69 -93 -134 -181 -144 -195 -10 -14 -48 -65 -85 -115
-36 -49 -73 -98 -81 -108 -8 -9 -14 -21 -14 -26 0 -5 -7 -11 -15 -15 -8 -3
-15 -11 -15 -17 0 -6 -17 -32 -39 -58 -21 -25 -43 -57 -50 -71 -11 -23 -11
-24 3 -6 8 10 37 42 63 70 27 28 80 87 118 130 39 44 86 96 105 116 19 21 60
65 90 99 30 34 75 84 100 110 25 27 79 86 120 132 41 46 86 95 100 110 14 15
51 56 82 91 31 35 71 80 90 99 31 33 165 181 198 219 25 28 172 190 210 230
19 21 64 70 99 110 36 40 78 87 95 104 35 38 171 187 199 220 10 11 37 42 60
67 23 25 78 85 122 133 44 48 93 102 108 119 l28 31 42 -46 c49 -53 192 -210
216 -236 29 -34 174 -193 229 -251 l53 -56 -6 -55 c-4 -30 -8 -80 -10 -110 -4
-53 -8 -90 -20 -190 -3 -25 -8 -70 -10 -100 -3 -30 -7 -68 -9 -85 -2 -16 -7
-61 -11 -100 -7 -72 -8 -81 -19 -175 -3 -30 -8 -82 -11 -115 -3 -33 -8 -75
-10 -93 -3 -19 -7 -66 -10 -105 -3 -40 -8 -83 -10 -97 -3 -14 -8 -50 -10 -80
-3 -30 -7 -79 -10 -109 -3 -30 -3 -52 0 -49 3 2 25 60 50 129 76 213 135 373
145 394 5 11 16 41 24 67 9 26 42 119 75 205 87 234 166 447 167 453 0 3 4 14
9 25 13 34 60 161 140 380 42 116 80 219 85 230 8 18 36 94 44 120 2 6 6 17 9
25 4 8 43 114 87 235 44 121 83 227 87 235 3 8 7 17 8 20 4 19 29 87 34 95 3
6 6 15 7 20 2 6 21 60 44 120 22 61 42 115 44 120 2 6 8 24 15 40 6 17 15 41
20 55 10 27 11 31 46 125 12 33 43 119 69 190 26 72 50 137 53 145 3 8 7 21 9
28 1 8 5 17 9 20 8 8 -4 -138 -21 -258 -3 -19 -7 -64 -10 -100 -2 -36 -7 -76
-9 -90 -3 -14 -7 -54 -10 -90 -3 -36 -8 -81 -10 -100 -2 -19 -6 -53 -9 -75 -3
-22 -8 -74 -11 -115 -4 -41 -9 -78 -11 -82 -3 -5 -2 -8 3 -8 4 0 30 64 56 143
80 233 127 371 137 392 5 11 27 74 49 140 51 154 110 326 118 345 3 8 7 20 9
25 15 55 140 405 145 405 6 0 19 -29 74 -165 21 -49 45 -108 55 -130 10 -22
34 -80 54 -130 20 -49 43 -103 51 -120 13 -26 102 -239 172 -410 13 -33 29
-71 35 -85 6 -14 12 -27 13 -30 1 -3 9 -23 19 -45 9 -22 31 -74 48 -115 17
-41 41 -98 54 -127 13 -28 24 -54 24 -57 0 -4 9 -26 20 -51 11 -25 29 -65 40
-90 11 -25 20 -47 20 -50 0 -3 9 -24 19 -48 11 -23 31 -71 46 -107 15 -36 33
-78 40 -95 7 -16 36 -86 65 -155 91 -221 100 -231 44 -50 -19 63 -37 124 -39
135 -3 11 -15 51 -27 90 -12 38 -22 75 -23 80 0 6 -11 44 -25 85 -13 41 -24
80 -25 85 -1 10 -30 109 -45 155 -4 14 -13 45 -20 70 -7 25 -19 65 -27 90 -8
25 -16 52 -18 60 -4 18 -123 426 -160 550 -14 47 -27 92 -29 100 -2 8 -10 35
-17 60 -7 25 -13 47 -14 50 0 3 -9 32 -20 65 -10 33 -19 67 -21 75 -5 28 -102
349 -110 362 -5 9 -4 10 3 3 11 -10 53 -84 81 -140 8 -16 24 -42 34 -57 11
-16 16 -28 13 -28 -3 0 2 -12 13 -27 10 -16 40 -68 67 -118 26 -49 60 -112 75
-140 51 -93 202 -370 230 -420 15 -27 42 -77 60 -110 18 -33 37 -66 42 -72 6
-7 7 -13 3 -13 -5 0 -1 -8 7 -17 9 -10 39 -63 68 -118 29 -55 61 -113 70 -130
34 -60 79 -143 145 -265 38 -69 76 -139 85 -155 9 -17 37 -68 62 -115 25 -47
58 -107 73 -135 16 -27 36 -63 45 -80 9 -16 38 -70 65 -120 26 -49 67 -124 90
-165 23 -41 61 -111 85 -155 23 -44 54 -100 68 -125 13 -25 38 -70 54 -100 17
-30 35 -61 40 -67 6 -7 7 -13 3 -13 -5 0 -1 -8 7 -17 9 -10 37 -58 63 -108 27
-49 58 -108 70 -130 23 -42 72 -132 108 -200 12 -22 24 -42 27 -45 3 -3 18
-30 33 -60 15 -30 46 -86 67 -125 66 -120 93 -175 89 -179 -2 -2 -31 -7 -64
-10 -33 -4 -87 -11 -120 -16 -33 -5 -82 -12 -110 -16 -27 -3 -57 -7 -65 -9
-18 -3 -92 -15 -135 -21 -16 -2 -41 -6 -55 -9 -23 -4 -73 -12 -125 -20 -11 -2
-35 -6 -52 -9 -18 -3 -48 -8 -65 -12 -39 -6 -282 -51 -318 -58 -14 -3 -50 -10
-80 -15 -30 -6 -66 -13 -80 -16 -14 -3 -36 -7 -50 -10 -14 -3 -34 -7 -45 -9
-69 -15 -224 -46 -245 -50 -14 -2 -43 -9 -65 -14 -22 -6 -53 -13 -70 -15 -16
-3 -48 -9 -70 -15 -22 -6 -56 -14 -75 -17 -19 -3 -64 -13 -100 -21 -36 -9 -74
-17 -85 -20 -11 -2 -31 -6 -45 -9 -14 -3 -34 -7 -45 -9 -11 -2 -50 -11 -86
-20 -37 -8 -78 -17 -90 -20 -29 -6 -330 -72 -419 -92 -77 -17 -246 -54 -275
-60 -22 -4 -27 -5 -135 -29 -106 -23 -110 -24 -154 -31 -22 -3 -43 -7 -47 -9
-3 -2 -21 -7 -40 -10 -19 -3 -65 -12 -104 -20 -38 -8 -81 -16 -95 -19 -14 -2
-99 -18 -190 -35 -91 -17 -183 -33 -205 -37 -22 -3 -51 -7 -65 -10 -81 -14
-191 -31 -255 -39 -22 -3 -60 -8 -84 -11 -24 -3 -60 -7 -80 -9 -20 -2 -58 -6
-86 -9 -151 -17 -302 -29 -382 -30 -29 -1 -53 -4 -53 -8 0 -4 -10 -4 -22 1
-12 4 -38 5 -57 2 -42 -7 -153 -6 -336 3 -129 6 -168 9 -255 22 -25 4 -56 8
-70 10 -32 4 -78 12 -170 30 -8 1 -43 10 -77 19 -35 9 -72 18 -83 20 -11 2
-26 7 -33 12 -6 4 -20 9 -31 10 -54 9 -280 111 -383 175 -35 21 -63 36 -63 33
0 -2 55 -45 123 -96 220 -164 428 -274 712 -376 39 -13 75 -26 80 -27 25 -6
102 -29 125 -37 14 -5 36 -11 50 -14 14 -2 43 -9 65 -14 61 -14 197 -42 225
-46 14 -2 54 -8 90 -14 135 -21 301 -37 498 -46 121 -6 479 -6 592 0 41 2 122
6 180 9 58 3 123 8 145 11 22 2 69 7 105 9 36 3 85 7 110 10 25 3 68 8 95 11
51 5 126 13 180 20 17 2 57 7 90 11 33 4 70 10 83 15 17 7 21 6 16 -3 -4 -6
-3 -8 3 -5 11 7 46 13 188 33 28 3 59 8 70 10 10 2 37 6 60 9 22 3 78 12 123
20 46 8 87 14 90 13 4 0 9 0 12 2 6 2 21 5 177 31 67 11 130 22 141 24 11 2
35 6 53 9 19 3 95 17 169 31 74 14 142 26 150 26 8 1 34 5 58 10 23 5 59 12
78 15 20 3 46 8 58 10 143 28 184 36 201 38 11 2 47 9 80 15 33 6 74 14 90 16
17 3 38 8 48 11 10 3 32 7 50 10 18 2 43 6 57 9 14 3 40 8 59 11 18 3 43 8 55
10 73 14 192 36 214 39 15 2 27 4 27 5 0 1 14 4 30 6 17 3 64 11 105 19 41 8
93 17 115 20 22 4 47 8 55 10 8 3 32 7 54 11 21 3 48 8 60 10 11 2 62 11 111
19 50 8 99 17 110 19 11 2 45 7 75 12 30 4 57 8 60 9 3 0 27 4 53 9 27 4 59 9
70 12 12 2 40 6 62 9 22 3 49 7 61 9 12 2 45 7 74 11 29 4 61 8 70 10 9 2 41
7 71 10 74 10 83 11 174 24 78 11 118 15 220 26 28 3 66 8 85 10 83 11 270 28
425 40 39 3 111 8 160 12 201 15 976 7 1148 -12 169 -19 195 -22 262 -31 71
-11 80 -12 80 -14 0 -1 16 -3 35 -5 43 -4 263 -49 342 -69 31 -9 67 -17 80
-20 12 -2 46 -12 73 -21 28 -9 59 -18 70 -20 11 -2 65 -20 120 -40 55 -20 117
-41 138 -47 20 -6 37 -15 37 -21 0 -6 3 -8 6 -5 8 8 199 -77 354 -158 113 -59
128 -62 59 -12 -13 9 -33 24 -44 33 -11 9 -51 38 -90 65 -38 27 -75 54 -82 60
-7 5 -15 10 -18 10 -3 0 -32 17 -63 39 -31 21 -70 46 -87 55 -16 9 -43 25 -60
36 -16 11 -43 26 -60 34 -61 30 -141 78 -161 97 -11 11 -23 16 -27 13 -3 -3
-39 10 -79 29 -125 60 -179 84 -303 132 -66 26 -129 51 -140 55 -25 11 -205
69 -231 75 -10 2 -57 16 -104 30 -85 25 -99 29 -155 40 -16 3 -43 10 -60 15
-85 26 -408 83 -603 106 -13 1 -55 5 -95 9 -40 3 -84 8 -99 11 -25 4 -96 9
-278 19 -84 5 -588 5 -705 1 -126 -5 -343 -20 -455 -31 -36 -3 -85 -8 -110
-10 -54 -5 -119 -12 -180 -20 l-46 -6 -21 48 c-65 147 -118 264 -153 339 -22
47 -40 87 -40 89 0 2 -18 43 -41 92 -22 48 -47 104 -56 123 -21 47 -53 117
-102 223 -23 49 -41 90 -41 93 0 2 -18 43 -40 90 -22 47 -40 92 -40 100 0 8
-4 14 -10 14 -5 0 -13 12 -16 28 -4 15 -10 32 -14 37 -4 6 -22 43 -40 84 -17
40 -48 108 -67 150 -20 42 -52 114 -73 161 -21 47 -53 119 -73 161 -19 42 -50
110 -67 150 -18 41 -52 117 -77 169 l-44 94 6 246 c3 135 8 346 11 470 3 124
6 244 6 268 1 23 4 42 7 41 3 0 24 -26 47 -57 22 -31 141 -196 265 -365 123
-169 229 -316 234 -325 6 -9 12 -19 16 -22 3 -3 21 -27 40 -55 18 -27 36 -52
39 -55 3 -3 30 -39 60 -80 29 -41 70 -97 90 -125 32 -44 56 -77 145 -200 11
-15 40 -55 65 -89 44 -60 222 -308 270 -376 14 -19 33 -42 43 -51 9 -9 17 -20
17 -24 0 -5 17 -31 38 -59 21 -28 71 -96 111 -151 39 -55 79 -110 89 -121 9
-12 23 -30 30 -40 23 -36 112 -159 128 -179 8 -11 38 -51 65 -90 28 -38 58
-80 67 -92 9 -12 87 -118 172 -236 85 -118 156 -214 157 -213 2 2 -73 231
-166 509 l-169 507 20 67 c12 38 23 75 26 83 3 8 6 20 7 25 2 6 31 107 65 225
34 118 63 222 66 230 2 8 17 62 34 120 39 130 35 119 44 155 4 17 9 35 11 40
1 6 3 13 4 17 1 4 8 26 16 48 8 22 12 40 10 40 -2 0 3 16 11 35 8 19 13 36 13
37 -1 2 3 19 8 38 6 19 17 56 24 83 7 26 16 47 20 47 4 0 14 -12 24 -26 9 -14
22 -33 30 -42 8 -9 38 -46 67 -82 29 -36 56 -69 61 -75 20 -27 349 -442 359
-455 13 -15 120 -147 173 -215 64 -82 127 -161 154 -195 16 -19 86 -107 155
-195 70 -88 135 -169 144 -180 9 -11 40 -49 67 -85 28 -35 58 -74 68 -85 10
-11 37 -45 60 -75 23 -30 49 -63 59 -73 10 -10 18 -21 18 -25 0 -4 13 -20 28
-37 15 -16 38 -43 50 -60 13 -16 34 -43 47 -60 14 -16 135 -169 271 -340 292
-367 284 -357 370 -465 37 -47 92 -116 121 -154 29 -37 53 -63 53 -56 0 6 -6
18 -12 25 -20 22 -30 36 -73 100 -22 33 -44 65 -50 72 -11 12 -244 345 -260
371 -5 9 -18 25 -27 36 -10 11 -18 23 -18 28 0 4 -7 16 -16 26 -20 21 -164
227 -189 270 -11 18 -23 32 -27 32 -4 0 -8 6 -8 14 0 8 -4 16 -8 18 -5 2 -35
41 -67 88 -33 47 -109 156 -170 242 -60 87 -137 196 -170 244 -33 47 -64 92
-70 98 -5 7 -14 19 -20 28 -29 48 -240 343 -247 346 -4 2 -8 8 -8 13 0 6 -15
30 -32 54 -39 53 -54 74 -163 230 -46 66 -89 125 -94 132 -6 7 -11 16 -11 22
0 5 -4 11 -8 13 -5 2 -23 26 -42 53 -18 28 -36 52 -39 55 -4 3 -27 37 -53 75
-88 130 -131 190 -140 193 -4 2 -8 8 -8 12 0 5 -44 71 -97 147 -118 167 -128
181 -251 356 l-97 139 -25 -29 c-44 -50 -119 -139 -175 -209 -16 -20 -35 -42
-42 -49 -7 -7 -49 -56 -93 -110 -44 -54 -86 -103 -93 -110 -7 -7 -22 -26 -34
-42 -12 -15 -36 -44 -53 -63 -18 -19 -44 -51 -59 -70 -14 -19 -35 -44 -46 -56
-11 -12 -27 -30 -35 -40 -27 -34 -115 -138 -128 -153 -8 -8 -38 -45 -69 -82
-30 -38 -58 -69 -62 -69 -8 0 -26 20 -66 75 -16 22 -34 45 -40 50 -6 6 -21 24
-33 42 -13 18 -32 42 -42 55 -18 21 -191 239 -259 327 -14 19 -31 39 -36 45
-6 6 -57 72 -115 146 -57 74 -107 137 -110 140 -3 3 -21 25 -40 50 -19 25 -37
47 -40 50 -3 3 -34 43 -70 90 -35 47 -72 92 -82 101 -10 9 -18 19 -18 23 0 5
-100 133 -151 194 -20 24 -123 155 -152 195 -15 20 -32 37 -37 37 -8 0 -83
-60 -249 -198 -84 -70 -80 -69 -114 -31 -16 19 -46 54 -66 79 -20 25 -38 47
-41 50 -3 3 -39 46 -80 95 -41 50 -79 95 -85 101 -5 6 -26 30 -45 54 -19 24
-42 51 -50 60 -13 14 -76 89 -120 144 -8 10 -26 31 -40 46 -14 16 -38 45 -55
66 -16 20 -35 42 -40 48 -6 6 -30 36 -55 66 -25 30 -49 60 -55 66 -5 6 -29 33
-52 60 -23 27 -50 59 -61 71 l-19 23 -68 -113z"/>
<path d="M8507 3613 c-1 0 -63 -4 -137 -8 -74 -3 -157 -8 -185 -10 -27 -2 -88
-6 -135 -9 -47 -4 -94 -8 -105 -10 -11 -2 -54 -7 -95 -11 -41 -4 -86 -8 -100
-10 -14 -2 -52 -6 -85 -9 -33 -3 -71 -8 -85 -11 -14 -3 -45 -7 -70 -10 -25 -2
-54 -6 -66 -9 -12 -2 -45 -7 -75 -11 -30 -3 -65 -8 -79 -10 -14 -3 -38 -7 -55
-9 -132 -21 -204 -33 -245 -41 -48 -10 -151 -27 -182 -31 -10 -1 -20 -3 -23
-4 -8 -4 -16 -6 -75 -15 -30 -5 -57 -9 -60 -10 -3 -1 -23 -5 -45 -10 -22 -4
-49 -10 -60 -12 -26 -5 -65 -13 -90 -18 -11 -2 -54 -10 -95 -19 -41 -8 -86
-17 -100 -20 -40 -8 -120 -23 -125 -25 -3 0 -6 -1 -7 -2 -8 -2 -37 -8 -68 -13
-19 -4 -43 -9 -52 -12 -17 -5 -45 -11 -85 -20 -13 -2 -34 -6 -48 -9 -14 -3
-37 -8 -52 -11 -16 -4 -37 -8 -48 -9 -11 -2 -20 -4 -20 -5 0 -1 -7 -3 -15 -5
-8 -1 -69 -14 -136 -29 -66 -15 -129 -28 -140 -30 -10 -3 -55 -12 -99 -21 -44
-9 -88 -19 -98 -21 -10 -2 -28 -6 -39 -10 -11 -3 -31 -8 -44 -10 -48 -8 -70
-12 -119 -24 -27 -6 -61 -14 -75 -16 -21 -4 -52 -10 -95 -20 -5 -1 -26 -5 -45
-9 -19 -3 -64 -12 -100 -20 -36 -8 -76 -17 -90 -19 -14 -3 -52 -10 -85 -17
-33 -6 -71 -13 -85 -14 -14 -2 -26 -4 -27 -5 -4 -3 -10 -5 -68 -15 -27 -5 -52
-9 -55 -10 -4 -1 -48 -8 -125 -21 -11 -2 -33 -5 -50 -8 -16 -3 -45 -7 -62 -10
-53 -10 -85 -15 -133 -21 -25 -3 -56 -8 -70 -10 -14 -2 -45 -7 -70 -10 -25 -4
-56 -8 -70 -10 -14 -2 -54 -6 -90 -10 -36 -3 -81 -8 -100 -10 -40 -5 -111 -11
-255 -21 -121 -8 -413 -8 -510 0 -132 11 -191 16 -216 21 -13 3 -42 7 -64 10
-22 3 -75 14 -118 24 -43 10 -75 15 -70 11 29 -25 381 -152 445 -160 4 -1 22
-6 40 -11 18 -6 44 -12 58 -15 14 -2 36 -7 50 -10 14 -4 34 -8 45 -9 11 -2 31
-5 45 -8 48 -9 95 -18 130 -22 86 -12 108 -15 155 -19 28 -3 50 -6 50 -6 0
-14 696 -20 860 -8 223 17 336 27 375 33 14 2 54 6 90 9 36 4 74 8 85 10 11 2
45 7 76 10 31 4 65 8 75 10 11 2 48 7 84 11 36 4 67 8 70 10 3 2 30 6 60 9 30
4 66 8 80 11 68 12 87 15 129 21 25 4 55 8 66 10 11 2 74 13 140 25 66 11 131
23 145 25 14 3 36 7 50 9 29 4 125 22 156 29 12 2 37 7 55 10 19 3 59 10 89
16 30 6 66 13 80 15 14 2 36 7 50 10 14 3 36 7 50 10 14 2 39 7 55 9 17 3 41
8 55 11 14 3 61 12 104 20 43 8 87 17 96 20 10 3 32 7 49 10 17 2 38 6 48 9
10 3 34 7 53 10 19 3 69 12 110 21 41 9 91 18 110 21 19 3 51 9 70 14 19 5 55
12 80 15 25 3 61 10 80 15 19 5 49 11 65 13 29 5 124 22 175 32 27 5 357 63
403 71 15 2 39 6 55 9 112 18 171 27 197 30 17 2 44 6 60 9 17 3 53 8 80 12
28 3 57 7 65 9 26 5 155 21 238 30 29 4 62 8 74 10 12 3 58 7 103 10 45 3 93
8 106 10 13 3 62 7 109 10 47 3 108 8 135 10 218 19 775 19 925 1 19 -3 62 -7
95 -11 95 -9 137 -14 180 -21 22 -3 49 -7 60 -8 18 -3 65 -11 120 -23 11 -2
35 -6 54 -9 19 -2 37 -6 41 -9 4 -2 22 -7 41 -10 114 -19 389 -109 584 -189
39 -16 39 -16 18 1 -13 10 -62 38 -110 63 -48 25 -94 51 -101 58 -8 7 -18 10
-23 7 -5 -4 -9 -1 -9 4 0 6 -4 11 -10 11 -5 0 -51 20 -102 44 -51 24 -124 56
-163 71 -38 15 -83 33 -100 40 -41 17 -162 58 -267 90 -98 29 -100 30 -183 49
-33 8 -67 16 -75 19 -8 4 -28 8 -45 11 -52 9 -89 16 -130 26 -22 5 -69 14
-105 20 -36 5 -75 12 -88 14 -24 5 -181 24 -267 32 -27 3 -68 7 -90 9 -114 11
-729 27 -738 18z"/>
<path d="M11070 3220 c0 -5 5 -10 11 -10 5 0 7 5 4 10 -3 6 -8 10 -11 10 -2 0
-4 -4 -4 -10z"/>
<path d="M11147 2999 c7 -7 15 -10 18 -7 3 3 -2 9 -12 12 -14 6 -15 5 -6 -5z"/>
</g>
</svg>
